<svg width="28" height="34" viewBox="0 0 28 34" fill="none" xmlns="http://www.w3.org/2000/svg">
<path d="M26.6 13.8C26.6 23.4 13.8 33 13.8 33C13.8 33 1 23.4 1 13.8C1 10.4052 2.34857 7.1495 4.74903 4.74903C7.1495 2.34857 10.4052 1 13.8 1C17.1948 1 20.4505 2.34857 22.851 4.74903C25.2514 7.1495 26.6 10.4052 26.6 13.8V13.8Z" stroke="white" stroke-width="2" stroke-linecap="round" stroke-linejoin="round"/>
<path d="M13.8 18.6C16.451 18.6 18.6 16.451 18.6 13.8C18.6 11.149 16.451 9 13.8 9C11.149 9 9 11.149 9 13.8C9 16.451 11.149 18.6 13.8 18.6Z" stroke="white" stroke-width="2" stroke-linecap="round" stroke-linejoin="round"/>
</svg>
