<svg width="48" height="48" viewBox="0 0 48 48" fill="none" xmlns="http://www.w3.org/2000/svg">
<circle cx="24" cy="24" r="24" fill="white"/>
<path d="M19.5478 33.5122C28.6048 33.5122 33.5578 26.0061 33.5578 19.497C33.5578 19.2838 33.5534 19.0716 33.5438 18.8603C34.5075 18.1627 35.3393 17.2989 36 16.3096C35.1177 16.702 34.1683 16.966 33.1723 17.0851C34.1889 16.4753 34.9694 15.5106 35.3376 14.3606C34.371 14.9342 33.3136 15.3386 32.2109 15.5563C31.3123 14.5988 30.0331 14 28.6166 14C25.8974 14 23.6923 16.206 23.6923 18.9251C23.6923 19.3117 23.7356 19.6876 23.8201 20.0483C19.7277 19.8423 16.0988 17.8822 13.6701 14.9018C13.2327 15.6535 13.0027 16.5078 13.0034 17.3776C13.0034 19.0865 13.8727 20.5952 15.1946 21.4778C14.4127 21.4539 13.6479 21.2426 12.9646 20.8617C12.9639 20.8824 12.9639 20.9025 12.9639 20.9246C12.9639 23.3101 14.6611 25.3019 16.9142 25.7532C16.491 25.8685 16.0544 25.9268 15.6158 25.9265C15.2991 25.9265 14.9904 25.8954 14.6904 25.8378C15.3173 27.7949 17.135 29.2192 19.2902 29.259C17.6049 30.5804 15.4819 31.3675 13.1745 31.3675C12.782 31.3678 12.3898 31.345 12 31.2992C14.1792 32.6965 16.7668 33.5119 19.548 33.5119" fill="#212B36"/>
</svg>
