<svg width="48" height="48" viewBox="0 0 48 48" fill="none" xmlns="http://www.w3.org/2000/svg">
<circle cx="24" cy="24" r="24" fill="white"/>
<path d="M24.5317 32.5799L19.6078 32.4899C18.0136 32.4585 16.4154 32.5211 14.8524 32.196C12.4748 31.7103 12.3063 29.3287 12.1301 27.331C11.8872 24.5224 11.9812 21.6629 12.4395 18.8778C12.6983 17.315 13.7165 16.3825 15.2911 16.281C20.6067 15.9128 25.9576 15.9564 31.2614 16.1282C31.8216 16.144 32.3856 16.2301 32.9379 16.328C35.6643 16.806 35.7308 19.5049 35.9076 21.7768C36.0838 24.0723 36.0094 26.3795 35.6725 28.6592C35.4022 30.5468 34.8851 32.1298 32.7028 32.2826C29.9686 32.4824 27.2971 32.6433 24.5552 32.5921C24.5553 32.5799 24.5395 32.5799 24.5317 32.5799ZM21.6369 27.801C23.6974 26.618 25.7186 25.4547 27.7673 24.2795C25.703 23.0965 23.6857 21.9331 21.6369 20.758V27.801Z" fill="#212B36"/>
</svg>
